<svg width="386" height="276" viewBox="0 0 386 276" fill="none" xmlns="http://www.w3.org/2000/svg">
<path d="M336.543 104.93C326.028 70.518 298.98 42.9622 266.975 28.4391C236.443 14.5839 197.843 7.72803 168.909 29.0628C149.863 43.1057 139.071 65.6052 121.63 81.3538C112.961 89.1812 103.471 91.7259 93.154 96.4068C68.0198 107.817 46.9829 129.825 45.2514 158.855C42.3564 207.397 80.7909 240.97 123.681 251.982C180.362 266.533 222.723 266.533 261.654 250.818C281.875 242.654 302.46 232.331 317.023 215.429C339.08 189.866 345.146 153.561 340.144 120.733C339.329 115.385 338.126 110.103 336.543 104.93Z" fill="#FF9233"/>
<path opacity="0.8" d="M336.543 104.93C326.028 70.518 298.98 42.9622 266.975 28.4391C236.443 14.5839 197.843 7.72803 168.909 29.0628C149.863 43.1057 139.071 65.6052 121.63 81.3538C112.961 89.1812 103.471 91.7259 93.154 96.4068C68.0198 107.817 46.9829 129.825 45.2514 158.855C42.3564 207.397 80.7909 240.97 123.681 251.982C180.362 266.533 222.723 266.533 261.654 250.818C281.875 242.654 302.46 232.331 317.023 215.429C339.08 189.866 345.146 153.561 340.144 120.733C339.329 115.385 338.126 110.103 336.543 104.93Z" fill="white"/>
<path d="M150.432 22.08H99.8555V85.168H150.432V22.08Z" stroke="#A3A3A3" stroke-miterlimit="10"/>
<path d="M148.367 24.6633H101.926V82.5902H148.367V24.6633Z" stroke="#A3A3A3" stroke-miterlimit="10"/>
<path d="M133.979 42.6089H116.316V64.6392H133.979V42.6089Z" fill="#D6D6D6"/>
<path d="M187.936 42.0237H153.637V84.8092H187.936V42.0237Z" stroke="#A3A3A3" stroke-miterlimit="10"/>
<path d="M186.576 43.7184H154.996V83.1091H186.576V43.7184Z" stroke="#A3A3A3" stroke-miterlimit="10"/>
<path d="M176.778 55.9452H164.801V70.8878H176.778V55.9452Z" fill="#D6D6D6"/>
<path d="M126.961 128.439V94.105H84.2197V128.439H126.961Z" stroke="#A3A3A3" stroke-miterlimit="10"/>
<path d="M124.945 126.827V95.7223H86.224V126.827H124.945Z" stroke="#A3A3A3" stroke-miterlimit="10"/>
<path d="M113.055 117.267V105.277H98.1275V117.267H113.055Z" fill="#D6D6D6"/>
<path d="M174.725 93.851H130.941V148.46H174.725V93.851Z" stroke="#A3A3A3" stroke-miterlimit="10"/>
<path d="M172.961 96.0535H132.707V146.263H172.961V96.0535Z" stroke="#A3A3A3" stroke-miterlimit="10"/>
<path d="M160.483 111.62H145.191V130.691H160.483V111.62Z" fill="#D6D6D6"/>
<path d="M44.4414 140.578L55.4424 246.142" stroke="#263238" stroke-width="2" stroke-miterlimit="10"/>
<path d="M53.4165 225.52L48.6797 220.668" stroke="#263238" stroke-width="2" stroke-miterlimit="10"/>
<path d="M50.1827 222.246C50.1733 221.439 49.9912 220.643 49.6488 219.911C49.3064 219.18 48.8116 218.531 48.1976 218.007C46.9183 216.864 40.1743 214.027 39.5347 216.401C38.8564 218.984 45.7713 224.062 50.1827 222.246Z" fill="#FF9233" stroke="#263238" stroke-miterlimit="10"/>
<path d="M50.1999 222.246L43.7812 218.244" stroke="#263238" stroke-width="0.5" stroke-miterlimit="10"/>
<path d="M54.3285 237.471L49.9336 232.668" stroke="#263238" stroke-width="2" stroke-miterlimit="10"/>
<path d="M51.4507 234.252C51.4412 233.445 51.2591 232.649 50.9167 231.917C50.5743 231.186 50.0795 230.537 49.4655 230.013C48.1862 228.87 41.4423 226.033 40.8026 228.407C40.1078 230.99 47.0062 236.068 51.4507 234.252Z" fill="#FF9233" stroke="#263238" stroke-miterlimit="10"/>
<path d="M51.4499 234.252L45.0312 230.25" stroke="#263238" stroke-width="0.5" stroke-miterlimit="10"/>
<path d="M50.3928 196.192L45.4023 190.915" stroke="#263238" stroke-width="2" stroke-miterlimit="10"/>
<path d="M47.1421 192.952C47.1326 192.144 46.9505 191.348 46.6081 190.617C46.2657 189.886 45.7709 189.236 45.1569 188.712C43.8776 187.57 37.1337 184.732 36.494 187.106C35.7992 189.689 42.6976 194.768 47.1421 192.952Z" fill="#FF9233" stroke="#263238" stroke-miterlimit="10"/>
<path d="M47.1413 192.952L40.7227 188.95" stroke="#263238" stroke-width="0.5" stroke-miterlimit="10"/>
<path d="M51.3731 208.226L46.8789 203.373" stroke="#263238" stroke-width="2" stroke-miterlimit="10"/>
<path d="M48.396 204.958C48.3865 204.15 48.2044 203.354 47.862 202.623C47.5196 201.892 47.0248 201.242 46.4109 200.718C45.1315 199.576 38.3876 196.738 37.7479 199.112C37.0531 201.695 43.9515 206.774 48.396 204.958Z" fill="#FF9233" stroke="#263238" stroke-miterlimit="10"/>
<path d="M48.3952 204.958L41.9766 200.956" stroke="#263238" stroke-width="0.5" stroke-miterlimit="10"/>
<path d="M48.4187 176.701L43.5938 171.865" stroke="#263238" stroke-width="2" stroke-miterlimit="10"/>
<path d="M45.1092 173.449C45.0998 172.642 44.9177 171.846 44.5753 171.115C44.2329 170.383 43.7381 169.734 43.1241 169.21C41.8448 168.067 35.1063 165.23 34.4667 167.604C33.7719 170.187 40.6702 175.266 45.1092 173.449Z" fill="#FF9233" stroke="#263238" stroke-miterlimit="10"/>
<path d="M45.1084 173.449L38.6953 169.448" stroke="#263238" stroke-width="0.5" stroke-miterlimit="10"/>
<path d="M46.1387 157.127L41.5508 152.28" stroke="#263238" stroke-width="2" stroke-miterlimit="10"/>
<path d="M43.068 153.859C43.0581 153.052 42.8758 152.257 42.5334 151.527C42.191 150.797 41.6964 150.148 41.0829 149.625C39.8036 148.488 33.0872 145.64 32.4199 148.019C31.7251 150.602 38.6014 155.664 43.068 153.859Z" fill="#FF9233" stroke="#263238" stroke-miterlimit="10"/>
<path d="M43.0671 153.859L36.6484 149.857" stroke="#263238" stroke-width="0.5" stroke-miterlimit="10"/>
<path d="M52.832 218.835L56.6259 212.647" stroke="#263238" stroke-width="2" stroke-miterlimit="10"/>
<path d="M55.4679 214.502C55.3104 213.71 55.3245 212.894 55.509 212.108C55.6936 211.323 56.0443 210.586 56.5377 209.948C57.5523 208.562 63.5629 204.395 64.6768 206.586C65.8899 208.971 60.1881 215.363 55.4679 214.502Z" fill="#FF9233" stroke="#263238" stroke-miterlimit="10"/>
<path d="M55.4688 214.502L61.2422 208.976" stroke="#263238" stroke-width="0.5" stroke-miterlimit="10"/>
<path d="M49.5352 187.244L53.329 181.051" stroke="#263238" stroke-width="2" stroke-miterlimit="10"/>
<path d="M52.173 182.911C52.0174 182.119 52.0323 181.303 52.2168 180.518C52.4013 179.733 52.7511 178.996 53.2428 178.357C54.263 176.971 60.268 172.804 61.3874 174.995C62.6006 177.38 56.8988 183.772 52.173 182.911Z" fill="#FF9233" stroke="#263238" stroke-miterlimit="10"/>
<path d="M52.1719 182.911L57.9508 177.385" stroke="#263238" stroke-width="0.5" stroke-miterlimit="10"/>
<path d="M48.0898 173.361L51.8837 167.168" stroke="#263238" stroke-width="2" stroke-miterlimit="10"/>
<path d="M50.7312 169.028C50.5762 168.24 50.591 167.429 50.7745 166.647C50.9581 165.865 51.3061 165.132 51.7954 164.496C52.8101 163.111 58.8206 158.937 59.9345 161.134C61.1477 163.497 55.4459 169.889 50.7312 169.028Z" fill="#FF9233" stroke="#263238" stroke-miterlimit="10"/>
<path d="M50.7266 169.028L56.5055 163.502" stroke="#263238" stroke-width="0.5" stroke-miterlimit="10"/>
<path d="M45.9688 153.009L49.7626 146.815" stroke="#263238" stroke-width="2" stroke-miterlimit="10"/>
<path d="M48.6027 148.676C48.4471 147.884 48.462 147.068 48.6465 146.283C48.8309 145.498 49.1807 144.761 49.6725 144.122C50.6871 142.736 56.6977 138.563 57.8171 140.754C59.0302 143.145 53.323 149.531 48.6027 148.676Z" fill="#FF9233" stroke="#263238" stroke-miterlimit="10"/>
<path d="M48.6055 148.676L54.3844 143.145" stroke="#263238" stroke-width="0.5" stroke-miterlimit="10"/>
<path d="M44.3468 139.993C44.1894 139.201 44.2034 138.385 44.3879 137.6C44.5725 136.814 44.9233 136.077 45.4166 135.439C46.4312 134.053 52.4418 129.886 53.5557 132.077C54.7688 134.462 49.0781 140.854 44.3468 139.993Z" fill="#FF9233" stroke="#263238" stroke-miterlimit="10"/>
<path d="M44.3477 139.993L50.1266 134.467" stroke="#263238" stroke-width="0.5" stroke-miterlimit="10"/>
<path d="M44.6659 140.208C43.8634 140.282 43.0544 140.182 42.2934 139.917C41.5325 139.651 40.8372 139.225 40.2545 138.668C38.9862 137.509 35.4736 131.089 37.7675 130.211C40.2545 129.273 46.0279 135.621 44.6659 140.208Z" fill="#FF9233" stroke="#263238" stroke-miterlimit="10"/>
<path d="M44.6825 140.23L39.7969 133.904" stroke="#263238" stroke-width="0.5" stroke-miterlimit="10"/>
<path d="M73.4694 155.338L64.4922 246.142" stroke="#263238" stroke-width="2" stroke-miterlimit="10"/>
<path d="M64.9439 240.771L61.1445 234.578" stroke="#263238" stroke-width="2" stroke-miterlimit="10"/>
<path d="M62.3125 236.438C62.47 235.647 62.456 234.831 62.2714 234.045C62.0869 233.259 61.7361 232.522 61.2428 231.884C60.2116 230.499 54.201 226.32 53.0871 228.528C51.874 230.913 57.5813 237.299 62.3125 236.438Z" fill="#FF9233" stroke="#263238" stroke-miterlimit="10"/>
<path d="M62.3013 236.438L56.8477 231.2" stroke="#263238" stroke-width="0.5" stroke-miterlimit="10"/>
<path d="M67.9829 211.471L64.1836 205.283" stroke="#263238" stroke-width="2" stroke-miterlimit="10"/>
<path d="M65.3406 207.144C65.4963 206.351 65.4815 205.535 65.297 204.748C65.1125 203.962 64.7627 203.224 64.2708 202.584C63.2507 201.204 57.2401 197.036 56.1262 199.228C54.9131 201.613 60.6203 208.005 65.3406 207.144Z" fill="#FF9233" stroke="#263238" stroke-miterlimit="10"/>
<path d="M65.3403 207.144L59.8867 201.9" stroke="#263238" stroke-width="0.5" stroke-miterlimit="10"/>
<path d="M66.7368 223.477L62.9375 217.289" stroke="#263238" stroke-width="2" stroke-miterlimit="10"/>
<path d="M64.0945 219.144C64.252 218.352 64.2381 217.535 64.0535 216.748C63.869 215.962 63.5182 215.224 63.0247 214.585C62.0046 213.205 55.994 209.037 54.8801 211.228C53.667 213.624 59.3743 220.011 64.0945 219.144Z" fill="#FF9233" stroke="#263238" stroke-miterlimit="10"/>
<path d="M64.0943 219.15L58.6406 213.906" stroke="#263238" stroke-width="0.5" stroke-miterlimit="10"/>
<path d="M70.0009 191.969L66.207 185.781" stroke="#263238" stroke-width="2" stroke-miterlimit="10"/>
<path d="M67.3655 187.636C67.5173 186.842 67.4974 186.025 67.3072 185.239C67.1169 184.454 66.7608 183.718 66.2627 183.082C65.248 181.696 59.2319 177.534 58.1181 179.726C56.938 182.11 62.6398 188.503 67.3655 187.636Z" fill="#FF9233" stroke="#263238" stroke-miterlimit="10"/>
<path d="M67.3654 187.636L61.9062 182.397" stroke="#263238" stroke-width="0.5" stroke-miterlimit="10"/>
<path d="M72.0282 172.379L68.2344 166.191" stroke="#263238" stroke-width="2" stroke-miterlimit="10"/>
<path d="M69.3925 168.051C69.5443 167.257 69.5244 166.44 69.3342 165.654C69.1439 164.869 68.7877 164.133 68.2896 163.497C67.275 162.111 61.2644 157.944 60.1505 160.135C58.965 162.525 64.6723 168.912 69.3925 168.051Z" fill="#FF9233" stroke="#263238" stroke-miterlimit="10"/>
<path d="M69.3927 168.051L63.9336 162.812" stroke="#263238" stroke-width="0.5" stroke-miterlimit="10"/>
<path d="M65.582 233.645L70.5669 228.368" stroke="#263238" stroke-width="2" stroke-miterlimit="10"/>
<path d="M69.0508 229.947C69.0607 229.14 69.243 228.345 69.5854 227.615C69.9278 226.884 70.4224 226.236 71.0359 225.713C72.3152 224.565 79.0537 221.722 79.6933 224.101C80.3937 226.684 73.4953 231.763 69.0508 229.947Z" fill="#FF9233" stroke="#263238" stroke-miterlimit="10"/>
<path d="M69.0508 229.947L75.8444 225.729" stroke="#263238" stroke-width="0.5" stroke-miterlimit="10"/>
<path d="M68.8594 202.049L73.8443 196.771" stroke="#263238" stroke-width="2" stroke-miterlimit="10"/>
<path d="M72.3281 198.356C72.3376 197.548 72.5197 196.752 72.8621 196.021C73.2045 195.29 73.6993 194.64 74.3133 194.116C75.5926 192.974 82.331 190.131 82.9707 192.504C83.671 195.088 76.7726 200.166 72.3281 198.356Z" fill="#FF9233" stroke="#263238" stroke-miterlimit="10"/>
<path d="M72.3281 198.356L79.1217 194.138" stroke="#263238" stroke-width="0.5" stroke-miterlimit="10"/>
<path d="M70.2969 188.166L75.2818 182.889" stroke="#263238" stroke-width="2" stroke-miterlimit="10"/>
<path d="M73.7656 184.467C73.7755 183.661 73.9578 182.866 74.3002 182.135C74.6426 181.405 75.1372 180.757 75.7508 180.234C77.0301 179.085 83.7685 176.243 84.4082 178.622C85.1085 181.205 78.2101 186.283 73.7656 184.467Z" fill="#FF9233" stroke="#263238" stroke-miterlimit="10"/>
<path d="M73.7656 184.467L80.5592 180.25" stroke="#263238" stroke-width="0.5" stroke-miterlimit="10"/>
<path d="M72.4023 167.814L77.3928 162.536" stroke="#263238" stroke-width="2" stroke-miterlimit="10"/>
<path d="M75.8789 164.115C75.8884 163.308 76.0705 162.512 76.4129 161.78C76.7553 161.049 77.2501 160.4 77.864 159.876C79.1434 158.733 85.8818 155.89 86.5215 158.264C87.2163 160.847 80.3234 165.931 75.8789 164.115Z" fill="#FF9233" stroke="#263238" stroke-miterlimit="10"/>
<path d="M75.8789 164.115L82.667 159.898" stroke="#263238" stroke-width="0.5" stroke-miterlimit="10"/>
<path d="M73.4961 154.742C73.5057 153.936 73.6878 153.14 74.0302 152.41C74.3726 151.68 74.8674 151.031 75.4812 150.508C76.7606 149.36 83.499 146.517 84.1387 148.891C84.8335 151.48 77.9406 156.558 73.4961 154.742Z" fill="#FF9233" stroke="#263238" stroke-miterlimit="10"/>
<path d="M73.4961 154.742L80.2842 150.525" stroke="#263238" stroke-width="0.5" stroke-miterlimit="10"/>
<path d="M73.7711 155.046C72.9707 154.953 72.1996 154.689 71.5099 154.272C70.8202 153.854 70.228 153.294 69.7733 152.628C68.7697 151.231 66.6522 144.227 69.0785 143.84C71.7198 143.415 76.043 150.812 73.7711 155.046Z" fill="#FF9233" stroke="#263238" stroke-miterlimit="10"/>
<path d="M73.7709 155.046L70.2969 147.842" stroke="#263238" stroke-width="0.5" stroke-miterlimit="10"/>
<path d="M60.9219 112.647V246.142" stroke="#263238" stroke-width="2" stroke-miterlimit="10"/>
<path d="M61.0341 226.072L56.6172 220.303" stroke="#263238" stroke-width="2" stroke-miterlimit="10"/>
<path d="M57.9627 222.037C58.0348 221.233 57.9348 220.424 57.6695 219.662C57.4042 218.901 56.9796 218.205 56.4242 217.621C55.2717 216.345 48.8586 212.824 47.9763 215.12C47.0168 217.615 53.3527 223.378 57.9627 222.037Z" fill="#FF9233" stroke="#263238" stroke-miterlimit="10"/>
<path d="M57.9625 222.036L51.9961 217.389" stroke="#263238" stroke-width="0.5" stroke-miterlimit="10"/>
<path d="M61.0341 200.983L56.6172 195.215" stroke="#263238" stroke-width="2" stroke-miterlimit="10"/>
<path d="M57.9627 196.948C58.0348 196.145 57.9348 195.335 57.6695 194.574C57.4042 193.812 56.9796 193.116 56.4242 192.532C55.2717 191.263 48.8586 187.735 47.9763 190.032C47.0168 192.527 53.3527 198.289 57.9627 196.948Z" fill="#FF9233" stroke="#263238" stroke-miterlimit="10"/>
<path d="M57.9625 196.948L51.9961 192.3" stroke="#263238" stroke-width="0.5" stroke-miterlimit="10"/>
<path d="M61.0341 171.529L56.6172 165.76" stroke="#263238" stroke-width="2" stroke-miterlimit="10"/>
<path d="M57.9627 167.493C58.0348 166.69 57.9348 165.881 57.6695 165.119C57.4042 164.358 56.9796 163.662 56.4242 163.077C55.2717 161.808 48.8586 158.28 47.9763 160.582C47.0168 163.072 53.3527 168.835 57.9627 167.493Z" fill="#FF9233" stroke="#263238" stroke-miterlimit="10"/>
<path d="M57.9625 167.493L51.9961 162.846" stroke="#263238" stroke-width="0.5" stroke-miterlimit="10"/>
<path d="M61.0341 151.921L56.6172 146.153" stroke="#263238" stroke-width="2" stroke-miterlimit="10"/>
<path d="M57.9627 147.886C58.0348 147.083 57.9348 146.274 57.6695 145.512C57.4042 144.751 56.9796 144.055 56.4242 143.47C55.2717 142.201 48.8586 138.673 47.9763 140.97C47.0168 143.465 53.3527 149.228 57.9627 147.886Z" fill="#FF9233" stroke="#263238" stroke-miterlimit="10"/>
<path d="M57.9625 147.886L51.9961 143.239" stroke="#263238" stroke-width="0.5" stroke-miterlimit="10"/>
<path d="M61.0341 132.226L56.6172 126.463" stroke="#263238" stroke-width="2" stroke-miterlimit="10"/>
<path d="M57.9627 128.191C58.0348 127.388 57.9348 126.578 57.6695 125.817C57.4042 125.055 56.9796 124.359 56.4242 123.775C55.2717 122.505 48.8586 118.984 47.9763 121.28C47.0168 123.77 53.3527 129.538 57.9627 128.191Z" fill="#FF9233" stroke="#263238" stroke-miterlimit="10"/>
<path d="M57.9625 128.191L51.9961 123.543" stroke="#263238" stroke-width="0.5" stroke-miterlimit="10"/>
<path d="M60.9336 233.728L65.3505 227.965" stroke="#263238" stroke-width="2" stroke-miterlimit="10"/>
<path d="M64.0047 229.693C63.9301 228.89 64.0283 228.08 64.2927 227.318C64.5572 226.556 64.9817 225.86 65.5377 225.277C66.6957 224.002 73.1033 220.48 73.9856 222.776C74.9451 225.277 68.6091 231.04 64.0047 229.693Z" fill="#FF9233" stroke="#263238" stroke-miterlimit="10"/>
<path d="M64.0039 229.693L70.3233 224.797" stroke="#263238" stroke-width="0.5" stroke-miterlimit="10"/>
<path d="M60.9336 193.829L65.3505 188.066" stroke="#263238" stroke-width="2" stroke-miterlimit="10"/>
<path d="M64.0043 189.794C63.9304 188.991 64.0289 188.182 64.2933 187.42C64.5577 186.658 64.9819 185.962 65.5373 185.378C66.6953 184.109 73.1029 180.587 73.9852 182.883C74.9446 185.373 68.6087 191.141 64.0043 189.794Z" fill="#FF9233" stroke="#263238" stroke-miterlimit="10"/>
<path d="M64.0039 189.794L70.3233 184.898" stroke="#263238" stroke-width="0.5" stroke-miterlimit="10"/>
<path d="M60.9336 174.134L65.3505 168.371" stroke="#263238" stroke-width="2" stroke-miterlimit="10"/>
<path d="M64.0047 170.099C63.9301 169.296 64.0283 168.486 64.2927 167.724C64.5572 166.963 64.9817 166.266 65.5377 165.683C66.6957 164.408 73.1033 160.886 73.9856 163.182C74.9451 165.683 68.6091 171.446 64.0047 170.099Z" fill="#FF9233" stroke="#263238" stroke-miterlimit="10"/>
<path d="M64.0039 170.099L70.3233 165.203" stroke="#263238" stroke-width="0.5" stroke-miterlimit="10"/>
<path d="M60.9336 148.107L65.3505 142.344" stroke="#263238" stroke-width="2" stroke-miterlimit="10"/>
<path d="M64.0043 144.072C63.9304 143.269 64.0289 142.46 64.2933 141.698C64.5577 140.936 64.9819 140.24 65.5373 139.656C66.6953 138.386 73.1029 134.865 73.9852 137.161C74.9446 139.656 68.6087 145.419 64.0043 144.072Z" fill="#FF9233" stroke="#263238" stroke-miterlimit="10"/>
<path d="M64.0039 144.072L70.3233 139.176" stroke="#263238" stroke-width="0.5" stroke-miterlimit="10"/>
<path d="M60.9336 127.645L65.3505 121.876" stroke="#263238" stroke-width="2" stroke-miterlimit="10"/>
<path d="M64.0043 123.609C63.9304 122.806 64.0289 121.997 64.2933 121.235C64.5577 120.474 64.9819 119.777 65.5373 119.193C66.6953 117.924 73.1029 114.396 73.9852 116.693C74.9446 119.188 68.6087 124.951 64.0043 123.609Z" fill="#FF9233" stroke="#263238" stroke-miterlimit="10"/>
<path d="M64.0039 123.609L70.3233 118.708" stroke="#263238" stroke-width="0.5" stroke-miterlimit="10"/>
<path d="M60.6571 114.529C60.5824 113.726 60.6806 112.916 60.9451 112.155C61.2095 111.393 61.634 110.697 62.19 110.113C63.348 108.838 69.7556 105.316 70.6379 107.612C71.6084 110.113 65.2725 115.876 60.6571 114.529Z" fill="#FF9233" stroke="#263238" stroke-miterlimit="10"/>
<path d="M60.668 114.529L66.9873 109.633" stroke="#263238" stroke-width="0.5" stroke-miterlimit="10"/>
<path d="M60.979 114.816C60.1729 114.805 59.3785 114.621 58.6491 114.277C57.9196 113.934 57.272 113.438 56.7495 112.823C55.6081 111.537 52.7792 104.792 55.1504 104.151C57.7366 103.445 62.7987 110.356 60.979 114.816Z" fill="#FF9233" stroke="#263238" stroke-miterlimit="10"/>
<path d="M60.9792 114.805L56.7773 107.999" stroke="#263238" stroke-width="0.5" stroke-miterlimit="10"/>
<path d="M137.365 246.22C135.407 240.203 130.621 225.337 131.007 224.763C131.481 224.046 131.481 220.215 131.481 220.215C131.481 220.215 115.931 222.13 104.93 212.79C93.9289 203.451 80.7663 192.438 80.7663 192.438C80.7663 192.438 78.8528 198.168 76.9394 204.174C75.3237 209.236 72.164 237.586 71.2266 246.22H137.365Z" fill="#263238" stroke="#263238" stroke-linecap="round" stroke-linejoin="round"/>
<path d="M98.8789 229.538C101.669 232.121 106.494 236.675 110.045 240.501" stroke="#6E6E6E" stroke-linecap="round" stroke-linejoin="round"/>
<path d="M96.6406 227.485L97.5064 228.274" stroke="#6E6E6E" stroke-linecap="round" stroke-linejoin="round"/>
<path d="M150.936 126.408C150.936 126.408 134.581 133.275 127.109 138.331C119.637 143.387 104.5 158.137 100.056 163.999C95.6113 169.861 84.7096 182.215 81.8863 185.621C79.063 189.027 77.2433 191.08 78.0263 196.738C78.8093 202.396 83.6784 211.493 88.928 216.141C94.1776 220.789 104.671 226.596 118.203 226.044C126.072 225.724 130.721 224.024 134.961 219.779C139.202 215.534 145.665 204.417 151.317 198.963C156.969 193.509 166.657 182.403 166.657 182.403C166.657 182.403 192.503 191.699 194.924 191.699C197.344 191.699 209.465 184.826 209.663 182.806C209.862 180.785 183.013 163 180.592 158.551C178.171 154.102 173.148 146.004 173.148 146.004C173.148 146.004 161.016 128.423 150.936 126.408Z" fill="#7D7D7D" stroke="#263238" stroke-linecap="round" stroke-linejoin="round"/>
<path d="M180.615 158.534C178.189 154.091 173.143 146.004 173.143 146.004C170.608 142.434 167.822 139.049 164.806 135.875C163.807 136.038 162.856 136.415 162.015 136.979C155.751 141.599 158.707 153.147 159.374 162.371C159.832 168.056 161.526 173.572 164.337 178.533L154.582 195.701C160.069 189.982 166.713 182.381 166.713 182.381C166.713 182.381 192.559 191.676 194.98 191.676C197.4 191.676 209.521 184.804 209.719 182.784C209.918 180.763 183.036 162.983 180.615 158.534Z" fill="#263238" stroke="#263238" stroke-linecap="round" stroke-linejoin="round"/>
<path d="M143.448 131.128C143.448 131.128 139.472 129.14 136.687 138.696C133.903 148.251 141.06 173.339 144.644 173.737C148.229 174.134 155.783 155.421 156.974 149.846C158.165 144.271 154.587 127.545 143.448 131.128Z" fill="#FF9233" stroke="#263238" stroke-linecap="round" stroke-linejoin="round"/>
<path d="M155.777 151.866C155.777 151.866 153.715 153.622 150.732 155.907C147.302 158.534 146.668 163.425 144.247 160.593C141.826 157.762 138.214 137.923 140.437 133.877C142.659 129.83 150.914 124.377 151.537 123.974C152.16 123.571 157.796 131.05 158.204 136.504C158.612 141.958 155.777 151.866 155.777 151.866Z" fill="white" stroke="#263238" stroke-linecap="round" stroke-linejoin="round"/>
<path d="M151.537 123.974C150.936 124.377 142.653 129.836 140.437 133.877C139.56 135.466 139.593 139.507 140.095 143.989C140.889 144.53 141.749 145.106 142.675 145.717C150.158 150.657 155.777 151.866 155.777 151.866L156.191 130.266C154.399 126.673 151.928 123.714 151.537 123.974Z" fill="#263238" stroke="#263238" stroke-linecap="round" stroke-linejoin="round"/>
<path d="M187.485 129.229L179.004 143.779C176.175 148.631 172.938 154.267 167.291 155.504C161.645 156.74 156.191 157.524 153.158 152.672C150.125 147.82 146.899 141.356 148.918 132.463C150.936 123.571 154.371 120.943 158.612 117.708C162.852 114.474 167.082 112.453 171.929 114.264C176.776 116.075 187.485 129.229 187.485 129.229Z" fill="white" stroke="#263238" stroke-linecap="round" stroke-linejoin="round"/>
<path d="M170.319 134.224C169.894 134.975 169.183 135.378 168.736 135.119C168.289 134.859 168.267 134.048 168.692 133.297C169.116 132.546 169.828 132.149 170.28 132.403C170.732 132.657 170.749 133.474 170.319 134.224Z" fill="#263238" stroke="#263238" stroke-linecap="round" stroke-linejoin="round"/>
<path d="M179.092 138.381C178.667 139.132 177.956 139.535 177.509 139.281C177.063 139.027 177.041 138.204 177.465 137.454C177.89 136.703 178.601 136.305 179.053 136.559C179.506 136.813 179.522 137.636 179.092 138.381Z" fill="#263238" stroke="#263238" stroke-linecap="round" stroke-linejoin="round"/>
<path d="M167.852 128.169C168.869 127.986 169.913 128.015 170.918 128.253C171.924 128.492 172.869 128.934 173.697 129.554" stroke="#263238" stroke-width="2" stroke-linecap="round" stroke-linejoin="round"/>
<path d="M178.941 132.541C178.941 132.541 183.05 132.756 182.873 135.742" stroke="#263238" stroke-width="2" stroke-linecap="round" stroke-linejoin="round"/>
<path d="M163.363 143.089C163.363 143.089 164.466 146.606 169.804 148.195" stroke="#263238" stroke-linecap="round" stroke-linejoin="round"/>
<path d="M177.634 135.24L176.388 138.16C176.388 138.16 173.631 145.066 173.14 145.987C172.649 146.909 168.888 145.038 167.852 143.371" stroke="#263238" stroke-linecap="round" stroke-linejoin="round"/>
<path d="M154.162 127.611C154.162 127.611 154.769 127.611 156.368 126.601C157.967 125.591 159.803 127.413 163.636 125.994C167.468 124.575 162.02 119.122 167.27 118.719C172.519 118.316 175.348 126.805 181.805 129.836C188.262 132.866 192.713 131.658 195.536 124.377C198.359 117.096 194.328 112.856 191.097 109.627C187.865 106.398 191.097 105.763 190.088 100.734C189.079 95.7058 184.022 93.6579 179.186 95.4795C174.35 97.3011 175.547 98.7142 172.922 98.7142C170.297 98.7142 167.876 95.2752 160.608 96.6883C153.341 98.1015 147.688 105.785 146.878 113.061C146.067 120.336 148.493 128.014 149.503 128.423C150.512 128.831 154.162 127.611 154.162 127.611Z" fill="#263238" stroke="#263238" stroke-linecap="round" stroke-linejoin="round"/>
<path d="M154.174 130.272C154.174 130.272 156.17 124.068 154.052 122.229C151.935 120.391 148.422 121.567 147.7 124.31C146.978 127.054 145.836 131.978 147.033 133.236C148.229 134.495 150.567 134.114 150.567 134.114" fill="white"/>
<path d="M154.174 130.272C154.174 130.272 156.17 124.068 154.052 122.229C151.935 120.391 148.422 121.567 147.7 124.31C146.978 127.054 145.836 131.978 147.033 133.236C148.229 134.495 150.567 134.114 150.567 134.114" stroke="#263238" stroke-linecap="round" stroke-linejoin="round"/>
<path d="M221.121 246.22L212.442 214.297C211.802 211.94 210.404 209.859 208.464 208.375C206.525 206.892 204.152 206.088 201.711 206.089H166.988C164.214 206.089 161.54 207.125 159.491 208.996C157.441 210.867 156.164 213.437 155.909 216.202L153.152 246.22H221.121Z" fill="#263238" stroke="#263238" stroke-linecap="round" stroke-linejoin="round"/>
<path d="M196.364 180.78C196.364 180.78 170.315 192.505 169.107 193.713C167.899 194.922 160.422 246.22 160.422 246.22H250.272C250.272 246.22 236.337 192.096 234.523 190.887C232.709 189.678 208.881 179.77 208.275 179.77C207.668 179.77 196.364 180.78 196.364 180.78Z" fill="#FF9233" stroke="#263238" stroke-linecap="round" stroke-linejoin="round"/>
<path d="M227.738 182.988C227.738 182.988 230.313 183.109 230.781 183.811C231.25 184.512 232.436 188.85 231.95 189.883C231.465 190.915 230.429 189.998 229.745 188.712C229.061 187.426 228.454 186.134 228.454 186.134L227.164 185.196L227.738 182.988Z" fill="white" stroke="#263238" stroke-linecap="round" stroke-linejoin="round"/>
<path d="M224.43 180.41C224.43 180.41 227.711 180.763 228.179 181.934C228.648 183.104 228.527 186.156 228.058 187.912C227.589 189.667 226.773 190.843 226.067 190.258C225.362 189.673 223.961 183.457 223.961 182.756C223.961 182.055 224.077 180.41 224.43 180.41Z" fill="white" stroke="#263238" stroke-linecap="round" stroke-linejoin="round"/>
<path d="M222.094 178.771C222.094 178.771 225.138 179.593 225.722 180.427C226.307 181.26 226.307 185.82 225.722 187.575C225.138 189.331 223.731 189.783 223.026 189.336C222.32 188.889 221.625 185.936 221.625 184.528C221.625 183.121 222.094 178.771 222.094 178.771Z" fill="white" stroke="#263238" stroke-linecap="round" stroke-linejoin="round"/>
<path d="M218.221 178.263C218.221 178.263 221.315 177.071 222.263 178.263C223.212 179.455 222.738 188.497 222.026 189.452C221.315 190.407 219.17 189.452 219.17 188.26C219.17 187.067 218.365 183.816 218.365 183.816L214.676 182.315C214.676 182.315 216.556 178.263 218.221 178.263Z" fill="white" stroke="#263238" stroke-linecap="round" stroke-linejoin="round"/>
<path d="M218.344 183.811L217.996 181.001" stroke="#263238" stroke-linecap="round" stroke-linejoin="round"/>
<path d="M194.911 181.674C194.911 181.674 190.979 182.458 190.72 185.61C190.461 188.762 191.244 204.229 193.339 205.802C195.434 207.375 205.68 200.028 205.68 200.028C205.68 200.028 213.769 204.24 215.606 202.915C217.442 201.59 215.865 187.967 211.939 182.723C208.013 177.479 194.911 181.674 194.911 181.674Z" fill="white" stroke="#263238" stroke-linecap="round" stroke-linejoin="round"/>
<path d="M178.848 229.306L182.829 208.203" stroke="#263238" stroke-linecap="round" stroke-linejoin="round"/>
<path d="M227.777 204.218L232.553 221.518L229.371 245.634" stroke="#263238" stroke-linecap="round" stroke-linejoin="round"/>
<path d="M183.457 178.285C190.316 178.285 195.875 172.991 195.875 166.461C195.875 159.931 190.316 154.637 183.457 154.637C176.599 154.637 171.039 159.931 171.039 166.461C171.039 172.991 176.599 178.285 183.457 178.285Z" fill="#263238" stroke="#263238" stroke-linecap="round" stroke-linejoin="round"/>
<path d="M188.105 177.192C188.726 176.948 189.321 176.643 189.881 176.281" stroke="#6E6E6E" stroke-linecap="round" stroke-linejoin="round"/>
<path d="M172.596 161.046C172.596 161.046 169.663 168.995 174.499 174.349C177.901 178.125 182.588 178.555 186.145 177.755" stroke="#6E6E6E" stroke-linecap="round" stroke-linejoin="round"/>
<path d="M193.937 174.112C193.937 174.112 193.738 181.994 193.738 184.219C193.738 186.443 200.4 196.363 204.436 196.948C208.472 197.533 210.088 190.076 210.292 186.642C210.496 183.209 211.301 178.362 211.301 178.362C211.301 178.362 199.617 180.78 193.937 174.112Z" fill="white" stroke="#263238" stroke-linecap="round" stroke-linejoin="round"/>
<path d="M208.674 181.702L206.623 178.782C202.719 178.815 197.248 178.048 193.94 174.112C193.94 174.112 193.813 179.201 193.758 182.353C203.132 184.335 208.674 181.702 208.674 181.702Z" fill="#263238" stroke="#263238" stroke-linecap="round" stroke-linejoin="round"/>
<path d="M189.901 168.25C189.901 168.25 192.322 174.918 195.757 178.153C199.193 181.387 205.854 185.632 210.497 183.203C215.14 180.775 218.167 177.545 219.38 170.071C220.593 162.597 219.38 145.413 219.38 145.413C219.38 145.413 218.774 141.776 212.311 140.561C205.848 139.347 194.748 141.571 192.526 146.021C190.303 150.47 189.691 156.326 189.691 159.964C189.691 163.602 189.901 168.25 189.901 168.25Z" fill="white" stroke="#263238" stroke-linecap="round" stroke-linejoin="round"/>
<path d="M205.016 162.972C205.533 162.972 205.953 162.273 205.953 161.41C205.953 160.548 205.533 159.848 205.016 159.848C204.498 159.848 204.078 160.548 204.078 161.41C204.078 162.273 204.498 162.972 205.016 162.972Z" fill="#263238" stroke="#263238" stroke-linecap="round" stroke-linejoin="round"/>
<path d="M215.637 160.676C215.637 161.543 215.218 162.244 214.699 162.244C214.181 162.244 213.762 161.543 213.762 160.676C213.762 159.81 214.181 159.114 214.699 159.114C215.218 159.114 215.637 159.815 215.637 160.676Z" fill="#263238" stroke="#263238" stroke-linecap="round" stroke-linejoin="round"/>
<path d="M202.203 157.971C202.203 157.971 203.036 155.261 206.576 155.675" stroke="#263238" stroke-linecap="round" stroke-linejoin="round"/>
<path d="M212.613 155.664C212.613 155.664 214.698 152.75 217.609 156.498" stroke="#263238" stroke-linecap="round" stroke-linejoin="round"/>
<path d="M212.612 161.736C212.612 161.736 211.779 164.027 212.612 165.048C213.444 166.069 213.864 168.178 212.402 168.592C211.32 168.86 210.209 169.001 209.094 169.011" stroke="#263238" stroke-linecap="round" stroke-linejoin="round"/>
<path d="M204.285 172.555C204.285 172.555 206.993 175.061 212.402 173.808" stroke="#263238" stroke-linecap="round" stroke-linejoin="round"/>
<path d="M215.945 145.049L220.109 154.842C220.109 154.842 224.901 151.093 224.068 144.839C223.235 138.585 219.695 138.171 219.695 138.171L215.945 145.049Z" fill="#263238" stroke="#263238" stroke-linecap="round" stroke-linejoin="round"/>
<path d="M188.686 158.75C188.686 158.75 189.469 161.51 191.89 159.688C194.31 157.867 196.963 152.082 196.963 152.082C196.963 152.082 193.737 156.326 195.755 157.541C197.773 158.755 206.232 156.525 215.54 147.434C224.848 138.342 223.012 133.082 218.568 129.444C214.123 125.806 204.032 131.652 204.032 131.652C204.032 131.652 196.963 129.444 188.085 134.683C179.207 139.921 180.811 152.269 182.229 154.488C183.646 156.707 183.844 160.77 188.686 158.75Z" fill="#263238" stroke="#263238" stroke-linecap="round" stroke-linejoin="round"/>
<path d="M190.886 160.958C190.886 160.958 189.271 155.901 186.646 156.106C184.021 156.31 182.405 164.386 185.637 168.029C188.868 171.672 190.682 168.636 190.682 168.636" fill="white"/>
<path d="M190.886 160.958C190.886 160.958 189.271 155.901 186.646 156.106C184.021 156.31 182.405 164.386 185.637 168.029C188.868 171.672 190.682 168.636 190.682 168.636" stroke="#263238" stroke-linecap="round" stroke-linejoin="round"/>
<path d="M189.458 167.808C189.459 168.066 189.384 168.318 189.242 168.533C189.099 168.748 188.896 168.916 188.659 169.015C188.421 169.115 188.159 169.141 187.906 169.092C187.654 169.042 187.421 168.919 187.239 168.737C187.056 168.555 186.932 168.323 186.881 168.07C186.83 167.817 186.856 167.555 186.954 167.316C187.052 167.078 187.219 166.874 187.433 166.731C187.647 166.587 187.899 166.511 188.157 166.511C188.501 166.511 188.831 166.647 189.075 166.89C189.319 167.133 189.457 167.463 189.458 167.808Z" fill="#FF9233" stroke="#263238" stroke-linecap="round" stroke-linejoin="round"/>
<path d="M215.746 199.173L221.811 212.31C221.811 212.31 244.828 225.851 246.24 226.458C247.651 227.065 251.489 230.703 252.096 235.549C252.702 240.396 249.89 243.233 246.444 243.233C242.997 243.233 239.782 242.422 237.158 240.203C234.533 237.984 216.964 216.152 216.964 216.152C216.964 216.152 213.132 213.944 212.123 213.116C211.114 212.288 210.099 210.086 210.099 210.086C210.099 210.086 208.081 211.096 206.669 210.897C205.257 210.698 203.035 206.045 203.035 206.045C203.035 206.045 205.241 198.77 205.864 197.765C206.487 196.76 211.93 196.551 211.93 196.551L215.746 199.173Z" fill="white" stroke="#263238" stroke-linecap="round" stroke-linejoin="round"/>
<path d="M207.461 208.065L209.683 207.254L210.086 208.27V210.086" stroke="#263238" stroke-linecap="round" stroke-linejoin="round"/>
<path d="M194.746 210.312L199.791 194.95C199.791 194.95 205.648 192.742 207.263 192.322C208.879 191.903 213.721 196.186 214.735 196.363C215.75 196.54 216.345 198.991 215.744 199.195C215.143 199.399 213.119 198.383 213.119 198.383L207.054 199.399C207.054 199.399 205.24 208.893 203.221 211.118C201.564 212.788 199.736 214.28 197.768 215.567C197.768 215.567 178.186 239.016 176.775 241.224C175.363 243.432 168.503 247.489 163.651 244.657C158.798 241.826 161.445 234.959 162.846 232.513C164.246 230.068 194.746 210.312 194.746 210.312Z" fill="white" stroke="#263238" stroke-linecap="round" stroke-linejoin="round"/>
<path d="M214.737 196.341L209.543 195.215L205.859 196.037" stroke="#263238" stroke-linecap="round" stroke-linejoin="round"/>
<path d="M203.664 194.613L209.134 193.581L210.772 193.785" stroke="#263238" stroke-linecap="round" stroke-linejoin="round"/>
<path d="M131.43 140.986C131.43 140.986 135.069 150.69 134.463 160.389C133.856 170.088 136.884 201.822 137.694 205.256C138.505 208.689 139.508 214.557 139.508 214.557C139.508 214.557 171.205 229.914 176.862 232.138C181.015 233.693 185.262 234.984 189.578 236.002C189.578 236.002 201.489 231.956 202.702 230.946C203.915 229.936 206.943 231.349 206.943 231.349C206.943 231.349 213.405 233.17 213.808 233.778C214.21 234.385 214.006 242.466 214.006 242.466C214.006 242.466 214.817 244.674 214.21 244.895C213.604 245.116 206.943 246.711 204.72 246.104C202.498 245.496 196.647 242.869 196.647 242.869C196.647 242.869 192.203 244.486 189.981 244.083C187.758 243.68 184.935 243.073 184.935 243.073C184.935 243.073 147.383 237.001 137.286 234.583C127.19 232.166 120.936 230.747 119.927 227.109C118.918 223.472 108.617 178.804 108.215 176.381" fill="#7D7D7D"/>
<path d="M131.43 140.986C131.43 140.986 135.069 150.69 134.463 160.389C133.856 170.088 136.884 201.822 137.694 205.256C138.505 208.689 139.508 214.557 139.508 214.557C139.508 214.557 171.205 229.914 176.862 232.138C181.015 233.693 185.262 234.984 189.578 236.002C189.578 236.002 201.489 231.956 202.702 230.946C203.915 229.936 206.943 231.349 206.943 231.349C206.943 231.349 213.405 233.17 213.808 233.778C214.21 234.385 214.006 242.466 214.006 242.466C214.006 242.466 214.817 244.674 214.21 244.895C213.604 245.116 206.943 246.711 204.72 246.104C202.498 245.496 196.647 242.869 196.647 242.869C196.647 242.869 192.203 244.486 189.981 244.083C187.758 243.68 184.935 243.073 184.935 243.073C184.935 243.073 147.383 237.001 137.286 234.583C127.19 232.166 120.936 230.747 119.927 227.109C118.918 223.472 108.617 178.804 108.215 176.381" stroke="#263238" stroke-linecap="round" stroke-linejoin="round"/>
<path d="M199.143 238.304H211.749C212.963 238.304 214.127 238.787 214.985 239.646C215.844 240.505 216.326 241.67 216.326 242.886V246.198H194.566V242.886C194.566 241.67 195.049 240.505 195.907 239.646C196.765 238.787 197.929 238.304 199.143 238.304Z" fill="#263238" stroke="#263238" stroke-linecap="round" stroke-linejoin="round"/>
<path d="M204.722 246.082C206.928 246.689 213.605 245.072 214.212 244.873C214.819 244.674 214.008 242.444 214.008 242.444C214.008 242.444 214.212 234.363 213.809 233.756C213.407 233.148 206.944 231.327 206.944 231.327C206.944 231.327 203.917 229.914 202.704 230.924C201.491 231.934 189.58 235.98 189.58 235.98C185.264 234.962 181.017 233.671 176.864 232.116C174.862 231.332 169.612 228.903 163.657 226.094C156.053 228.136 155.441 234.777 155.628 238.083C169.414 240.523 184.937 243.051 184.937 243.051C184.937 243.051 187.766 243.658 189.982 244.061C192.199 244.464 196.649 242.847 196.649 242.847C196.649 242.847 202.505 245.474 204.722 246.082Z" fill="white" stroke="#263238" stroke-linecap="round" stroke-linejoin="round"/>
<path d="M206.738 233.353C206.738 233.353 210.174 237.393 211.381 239.011C212.589 240.628 214.006 242.444 214.006 242.444" stroke="#263238" stroke-linecap="round" stroke-linejoin="round"/>
<path d="M201.695 234.561C201.695 234.561 206.945 240.021 208.357 241.031C209.768 242.041 211.588 245.474 211.588 245.474" stroke="#263238" stroke-linecap="round" stroke-linejoin="round"/>
<path d="M197.453 238C197.453 238 204.114 242.847 204.925 243.454C205.851 244.277 206.727 245.155 207.55 246.082" stroke="#263238" stroke-linecap="round" stroke-linejoin="round"/>
<path d="M168.217 228.252C166.778 227.584 165.245 226.866 163.657 226.116C156.053 228.158 155.441 234.799 155.628 238.105L161.098 239.066C161.771 233.038 165.819 229.715 168.217 228.252Z" fill="#FF9233" stroke="#263238" stroke-linecap="round" stroke-linejoin="round"/>
<path d="M230.221 242.637H312.307V246.192H226.984V245.85C226.993 244.996 227.338 244.179 227.944 243.578C228.55 242.977 229.368 242.639 230.221 242.637Z" fill="#263238" stroke="#263238" stroke-linecap="round" stroke-linejoin="round"/>
<path d="M312.306 242.637H260.395V246.22H312.306V242.637Z" fill="white" stroke="#263238" stroke-linecap="round" stroke-linejoin="round"/>
<path d="M317.975 202.319H266.063L260.395 242.334H312.306L317.975 202.319Z" fill="white" stroke="#263238" stroke-linecap="round" stroke-linejoin="round"/>
<path d="M312.308 242.328L317.27 207.193C310.56 212.421 300.888 220.496 289.815 229.687C281.361 236.731 274.281 240.413 269.098 242.328H312.308Z" fill="#263238" stroke="#263238" stroke-linecap="round" stroke-linejoin="round"/>
<path d="M290.431 228.892C293.178 228.892 295.405 227.022 295.405 224.714C295.405 222.406 293.178 220.535 290.431 220.535C287.684 220.535 285.457 222.406 285.457 224.714C285.457 227.022 287.684 228.892 290.431 228.892Z" fill="white" stroke="#263238" stroke-linecap="round" stroke-linejoin="round"/>
<path d="M333.062 246.22H337.943" stroke="#263238" stroke-linecap="round" stroke-linejoin="round"/>
<path d="M37.4961 246.22H329.202" stroke="#263238" stroke-linecap="round" stroke-linejoin="round"/>
<path d="M281.942 87.8942C282.982 82.8825 279.766 77.9761 274.759 76.9354C269.753 75.8948 264.851 79.1141 263.812 84.1258C262.772 89.1375 265.988 94.0439 270.995 95.0845C276.001 96.1251 280.903 92.9059 281.942 87.8942Z" fill="#FF9233" stroke="#263238" stroke-linecap="round" stroke-linejoin="round"/>
<path d="M272.598 84.9418V120.651" stroke="#263238" stroke-linecap="round" stroke-linejoin="round"/>
<path d="M272.598 90.2133L277.864 84.7485" stroke="#263238" stroke-linecap="round" stroke-linejoin="round"/>
<path d="M272.205 92.9459L269.184 89.9209" stroke="#263238" stroke-linecap="round" stroke-linejoin="round"/>
<path d="M262.069 103.324C265.219 102.007 266.707 98.3834 265.392 95.2297C264.076 92.076 260.456 90.5868 257.306 91.9034C254.155 93.22 252.668 96.8439 253.983 99.9976C255.298 103.151 258.918 104.641 262.069 103.324Z" fill="#FF9233" stroke="#263238" stroke-linecap="round" stroke-linejoin="round"/>
<path d="M259.488 96.8871V120.733" stroke="#263238" stroke-linecap="round" stroke-linejoin="round"/>
<path d="M259.488 100.403L263.006 96.7546" stroke="#263238" stroke-linecap="round" stroke-linejoin="round"/>
<path d="M259.229 102.225L257.211 100.21" stroke="#263238" stroke-linecap="round" stroke-linejoin="round"/>
<path d="M319.221 98.7418C322.635 98.7418 325.402 95.9714 325.402 92.5539C325.402 89.1364 322.635 86.366 319.221 86.366C315.807 86.366 313.039 89.1364 313.039 92.5539C313.039 95.9714 315.807 98.7418 319.221 98.7418Z" fill="#FF9233" stroke="#263238" stroke-linecap="round" stroke-linejoin="round"/>
<path d="M319.023 91.8363V115.688" stroke="#263238" stroke-linecap="round" stroke-linejoin="round"/>
<path d="M319.023 95.3581L322.542 91.7094" stroke="#263238" stroke-linecap="round" stroke-linejoin="round"/>
<path d="M318.764 97.1796L316.746 95.1593" stroke="#263238" stroke-linecap="round" stroke-linejoin="round"/>
<path d="M323.162 107.452H260.023V127.396H323.162V107.452Z" fill="white" stroke="#263238" stroke-linecap="round" stroke-linejoin="round"/>
<path d="M291.676 89.2529L260.195 107.452H323.163L291.676 89.2529Z" fill="#FF9233" stroke="#263238" stroke-linecap="round" stroke-linejoin="round"/>
<path d="M304.388 105.829H288.766V127.396H304.388V105.829Z" fill="white" stroke="#263238" stroke-linecap="round" stroke-linejoin="round"/>
<path d="M304.388 105.829H288.766V106.746H304.388V105.829Z" fill="#263238" stroke="#263238" stroke-linecap="round" stroke-linejoin="round"/>
<path d="M300.478 127.396H292.676V113.916C292.676 112.881 293.087 111.889 293.818 111.157C294.549 110.425 295.54 110.014 296.574 110.014C297.087 110.013 297.594 110.113 298.068 110.309C298.542 110.505 298.972 110.792 299.335 111.155C299.697 111.517 299.985 111.948 300.181 112.422C300.377 112.895 300.478 113.403 300.478 113.916V127.396Z" fill="#263238" stroke="#263238" stroke-linecap="round" stroke-linejoin="round"/>
<path d="M291.682 110.947H255.492V127.396H291.682V110.947Z" fill="white" stroke="#263238" stroke-linecap="round" stroke-linejoin="round"/>
<path d="M291.682 110.947H255.492V111.681H291.682V110.947Z" fill="#263238" stroke="#263238" stroke-linecap="round" stroke-linejoin="round"/>
<path d="M287.7 112.304H259.473V127.396H287.7V112.304Z" fill="#FF9233" stroke="#263238" stroke-linecap="round" stroke-linejoin="round"/>
<path d="M273.589 98.913L254.383 110.014H292.795L273.589 98.913Z" fill="#FF9233" stroke="#263238" stroke-linecap="round" stroke-linejoin="round"/>
<path d="M292.795 110.014H254.383V110.947H292.795V110.014Z" fill="white" stroke="#263238" stroke-linecap="round" stroke-linejoin="round"/>
<path d="M296.573 99.5698L286.625 105.322H306.521L296.573 99.5698Z" fill="#FF9233" stroke="#263238" stroke-linecap="round" stroke-linejoin="round"/>
<path d="M306.528 105.322H286.633V106.243H306.528V105.322Z" fill="white" stroke="#263238" stroke-linecap="round" stroke-linejoin="round"/>
<path d="M262.792 113.513H260.504V115.804H262.792V113.513Z" fill="white" stroke="#263238" stroke-width="0.5" stroke-linecap="round" stroke-linejoin="round"/>
<path d="M266.222 113.513H263.934V115.804H266.222V113.513Z" fill="white" stroke="#263238" stroke-width="0.5" stroke-linecap="round" stroke-linejoin="round"/>
<path d="M269.648 113.513H267.359V115.804H269.648V113.513Z" fill="white" stroke="#263238" stroke-width="0.5" stroke-linecap="round" stroke-linejoin="round"/>
<path d="M273.077 113.513H270.789V115.804H273.077V113.513Z" fill="white" stroke="#263238" stroke-width="0.5" stroke-linecap="round" stroke-linejoin="round"/>
<path d="M276.507 113.513H274.219V115.804H276.507V113.513Z" fill="white" stroke="#263238" stroke-width="0.5" stroke-linecap="round" stroke-linejoin="round"/>
<path d="M279.937 113.513H277.648V115.804H279.937V113.513Z" fill="white" stroke="#263238" stroke-width="0.5" stroke-linecap="round" stroke-linejoin="round"/>
<path d="M283.363 113.513H281.074V115.804H283.363V113.513Z" fill="white" stroke="#263238" stroke-width="0.5" stroke-linecap="round" stroke-linejoin="round"/>
<path d="M286.792 113.513H284.504V115.804H286.792V113.513Z" fill="white" stroke="#263238" stroke-width="0.5" stroke-linecap="round" stroke-linejoin="round"/>
<path d="M262.792 116.88H260.504V119.171H262.792V116.88Z" fill="white" stroke="#263238" stroke-width="0.5" stroke-linecap="round" stroke-linejoin="round"/>
<path d="M266.222 116.88H263.934V119.171H266.222V116.88Z" fill="white" stroke="#263238" stroke-width="0.5" stroke-linecap="round" stroke-linejoin="round"/>
<path d="M269.648 116.88H267.359V119.171H269.648V116.88Z" fill="white" stroke="#263238" stroke-width="0.5" stroke-linecap="round" stroke-linejoin="round"/>
<path d="M273.077 116.88H270.789V119.171H273.077V116.88Z" fill="white" stroke="#263238" stroke-width="0.5" stroke-linecap="round" stroke-linejoin="round"/>
<path d="M276.507 116.88H274.219V119.171H276.507V116.88Z" fill="white" stroke="#263238" stroke-width="0.5" stroke-linecap="round" stroke-linejoin="round"/>
<path d="M279.937 116.88H277.648V119.171H279.937V116.88Z" fill="white" stroke="#263238" stroke-width="0.5" stroke-linecap="round" stroke-linejoin="round"/>
<path d="M283.363 116.88H281.074V119.171H283.363V116.88Z" fill="white" stroke="#263238" stroke-width="0.5" stroke-linecap="round" stroke-linejoin="round"/>
<path d="M286.792 116.88H284.504V119.171H286.792V116.88Z" fill="white" stroke="#263238" stroke-width="0.5" stroke-linecap="round" stroke-linejoin="round"/>
<path d="M262.792 120.248H260.504V122.538H262.792V120.248Z" fill="white" stroke="#263238" stroke-width="0.5" stroke-linecap="round" stroke-linejoin="round"/>
<path d="M266.222 120.248H263.934V122.538H266.222V120.248Z" fill="white" stroke="#263238" stroke-width="0.5" stroke-linecap="round" stroke-linejoin="round"/>
<path d="M269.648 120.248H267.359V122.538H269.648V120.248Z" fill="white" stroke="#263238" stroke-width="0.5" stroke-linecap="round" stroke-linejoin="round"/>
<path d="M273.077 120.248H270.789V122.538H273.077V120.248Z" fill="white" stroke="#263238" stroke-width="0.5" stroke-linecap="round" stroke-linejoin="round"/>
<path d="M276.507 120.248H274.219V122.538H276.507V120.248Z" fill="white" stroke="#263238" stroke-width="0.5" stroke-linecap="round" stroke-linejoin="round"/>
<path d="M279.937 120.248H277.648V122.538H279.937V120.248Z" fill="white" stroke="#263238" stroke-width="0.5" stroke-linecap="round" stroke-linejoin="round"/>
<path d="M283.363 120.248H281.074V122.538H283.363V120.248Z" fill="white" stroke="#263238" stroke-width="0.5" stroke-linecap="round" stroke-linejoin="round"/>
<path d="M286.792 120.248H284.504V122.538H286.792V120.248Z" fill="white" stroke="#263238" stroke-width="0.5" stroke-linecap="round" stroke-linejoin="round"/>
<path d="M262.792 123.615H260.504V125.906H262.792V123.615Z" fill="white" stroke="#263238" stroke-width="0.5" stroke-linecap="round" stroke-linejoin="round"/>
<path d="M266.222 123.615H263.934V125.906H266.222V123.615Z" fill="white" stroke="#263238" stroke-width="0.5" stroke-linecap="round" stroke-linejoin="round"/>
<path d="M269.648 123.615H267.359V125.906H269.648V123.615Z" fill="white" stroke="#263238" stroke-width="0.5" stroke-linecap="round" stroke-linejoin="round"/>
<path d="M273.077 123.615H270.789V125.906H273.077V123.615Z" fill="white" stroke="#263238" stroke-width="0.5" stroke-linecap="round" stroke-linejoin="round"/>
<path d="M276.507 123.615H274.219V125.906H276.507V123.615Z" fill="white" stroke="#263238" stroke-width="0.5" stroke-linecap="round" stroke-linejoin="round"/>
<path d="M279.937 123.615H277.648V125.906H279.937V123.615Z" fill="white" stroke="#263238" stroke-width="0.5" stroke-linecap="round" stroke-linejoin="round"/>
<path d="M283.363 123.615H281.074V125.906H283.363V123.615Z" fill="white" stroke="#263238" stroke-width="0.5" stroke-linecap="round" stroke-linejoin="round"/>
<path d="M286.792 123.615H284.504V125.906H286.792V123.615Z" fill="white" stroke="#263238" stroke-width="0.5" stroke-linecap="round" stroke-linejoin="round"/>
<path d="M324.956 127.396H301.867V105.83L313.414 99.5698L324.956 105.83V127.396Z" fill="white" stroke="#263238" stroke-linecap="round" stroke-linejoin="round"/>
<path d="M326.719 106.751L313.413 99.5312L300.107 106.751L299.688 105.984L313.413 98.5431L327.132 105.984L326.719 106.751Z" fill="white" stroke="#263238" stroke-linecap="round" stroke-linejoin="round"/>
<path d="M301.867 105.83V106.354L313.414 100.094L324.956 106.354V105.83L313.414 99.5698L301.867 105.83Z" fill="#263238" stroke="#263238" stroke-linecap="round" stroke-linejoin="round"/>
<path d="M317.656 113.221H313.785V115.914H317.656V113.221Z" fill="#263238" stroke="#263238" stroke-linecap="round" stroke-linejoin="round"/>
<path d="M317.656 116.803H313.785V119.497H317.656V116.803Z" fill="#263238" stroke="#263238" stroke-linecap="round" stroke-linejoin="round"/>
<path d="M317.656 109.462H313.785V112.338H317.656V109.462Z" fill="#263238" stroke="#263238" stroke-linecap="round" stroke-linejoin="round"/>
<path d="M312.894 109.462H309.023V112.338H312.894V109.462Z" fill="#263238" stroke="#263238" stroke-linecap="round" stroke-linejoin="round"/>
<path d="M312.894 116.803H309.023V119.497H312.894V116.803Z" fill="#263238" stroke="#263238" stroke-linecap="round" stroke-linejoin="round"/>
<path d="M312.894 113.221H309.023V115.914H312.894V113.221Z" fill="#263238" stroke="#263238" stroke-linecap="round" stroke-linejoin="round"/>
<path d="M317.656 120.386H313.785V122.864H317.656V120.386Z" fill="#263238" stroke="#263238" stroke-linecap="round" stroke-linejoin="round"/>
<path d="M312.894 120.386H309.023V122.864H312.894V120.386Z" fill="#263238" stroke="#263238" stroke-linecap="round" stroke-linejoin="round"/>
<path d="M310.403 135.715H270.391C268.259 135.715 266.531 137.445 266.531 139.579V150.166C266.531 152.3 268.259 154.03 270.391 154.03H310.403C312.535 154.03 314.263 152.3 314.263 150.166V139.579C314.263 137.445 312.535 135.715 310.403 135.715Z" fill="#FF9233" stroke="#263238" stroke-linecap="round" stroke-linejoin="round"/>
<path d="M280.792 141.202C281.895 141.202 282.491 141.875 282.491 143.056V143.288H281.388V142.968C281.388 142.444 281.178 142.245 280.809 142.245C280.439 142.245 280.258 142.444 280.258 142.968C280.258 144.486 282.513 144.768 282.513 146.871C282.513 148.052 281.928 148.725 280.792 148.725C279.656 148.725 279.066 148.052 279.066 146.871V146.418H280.169V146.97C280.169 147.494 280.401 147.682 280.77 147.682C281.14 147.682 281.371 147.494 281.371 146.97C281.371 145.452 279.111 145.171 279.111 143.067C279.088 141.864 279.667 141.202 280.792 141.202Z" fill="#263238"/>
<path d="M284.322 144.392H285.905V145.441H284.322V147.599H286.318V148.648H283.164V141.312H286.318V142.361H284.322V144.392Z" fill="#263238"/>
<path d="M287.027 141.312H288.18V147.621H290.082V148.67H287.027V141.312Z" fill="#263238"/>
<path d="M291.743 144.392H293.359V145.441H291.771V147.599H293.767V148.648H290.602V141.312H293.756V142.361H291.76L291.743 144.392Z" fill="#263238"/>
<path d="M297.802 145.905V146.882C297.802 148.063 297.212 148.736 296.081 148.736C294.951 148.736 294.355 148.063 294.355 146.882V143.056C294.355 141.875 294.945 141.202 296.081 141.202C297.217 141.202 297.802 141.875 297.802 143.056V143.768H296.699V142.968C296.699 142.444 296.467 142.245 296.098 142.245C295.729 142.245 295.502 142.444 295.502 142.968V146.948C295.502 147.472 295.734 147.66 296.098 147.66C296.462 147.66 296.699 147.472 296.699 146.948V145.894L297.802 145.905Z" fill="#263238"/>
<path d="M298.173 141.312H301.741V142.361H300.528V148.67H299.376V142.339H298.168L298.173 141.312Z" fill="#263238"/>
<path d="M306.042 162.443C306.042 162.443 303.671 158.612 302.905 158.027C302.138 157.442 300.302 157.475 299.999 158.788C299.696 160.102 300.457 160.781 300.991 161.317C301.685 162.196 302.324 163.118 302.905 164.077C303.561 165.142 303.704 166.781 304.283 167.941C305.607 170.596 308.204 172.848 311.292 172.864C314.711 172.864 317.986 169.933 318.461 166.522C318.648 165.076 318.681 161.046 318.687 159.655C318.692 159.344 318.584 159.042 318.383 158.805C318.126 158.508 317.772 158.312 317.384 158.253C316.997 158.193 316.6 158.273 316.266 158.479L316.012 158.634L315.742 158.209C315.546 157.873 315.254 157.604 314.904 157.436C314.606 157.279 314.266 157.223 313.933 157.276C313.601 157.33 313.295 157.491 313.062 157.734L312.797 158.027L312.489 157.524C311.816 156.713 310.36 156.636 309.732 157.486V151.414C309.732 150.935 309.542 150.476 309.203 150.137C308.865 149.799 308.407 149.609 307.928 149.609C307.45 149.609 306.992 149.799 306.653 150.137C306.315 150.476 306.125 150.935 306.125 151.414L306.042 162.443Z" fill="white" stroke="#263238" stroke-linecap="round" stroke-linejoin="round"/>
<path d="M312.754 158.005V161.526" stroke="#263238" stroke-linecap="round" stroke-linejoin="round"/>
<path d="M315.969 158.612V161.753" stroke="#263238" stroke-linecap="round" stroke-linejoin="round"/>
<path d="M309.691 157.464V161.063" stroke="#263238" stroke-linecap="round" stroke-linejoin="round"/>
<path d="M307.887 144.69V148.267" stroke="#263238" stroke-linecap="round" stroke-linejoin="round"/>
<path d="M310.777 150.47H313.805" stroke="#263238" stroke-linecap="round" stroke-linejoin="round"/>
<path d="M301.562 150.47H304.59" stroke="#263238" stroke-linecap="round" stroke-linejoin="round"/>
<path d="M310.09 148.267L311.331 146.755" stroke="#263238" stroke-linecap="round" stroke-linejoin="round"/>
<path d="M305.274 148.267L304.039 146.755" stroke="#263238" stroke-linecap="round" stroke-linejoin="round"/>
<path d="M328.254 63.4359H252.78C250.444 63.4359 248.551 65.3315 248.551 67.6698V173.88C248.551 176.218 250.444 178.114 252.78 178.114H328.254C330.59 178.114 332.484 176.218 332.484 173.88V67.6698C332.484 65.3315 330.59 63.4359 328.254 63.4359Z" stroke="#263238" stroke-linecap="round" stroke-linejoin="round"/>
<path d="M327.911 63.4359H253.104C251.89 63.4359 250.726 63.9186 249.868 64.7778C249.01 65.637 248.527 66.8024 248.527 68.0175V69H332.51V68.0064C332.509 67.4036 332.389 66.8069 332.158 66.2505C331.926 65.6942 331.587 65.1891 331.159 64.7644C330.732 64.3397 330.225 64.0037 329.668 63.7757C329.11 63.5477 328.513 63.4322 327.911 63.4359Z" fill="#263238" stroke="#263238" stroke-linecap="round" stroke-linejoin="round"/>
<path d="M319.755 67.4048C320.468 67.4048 321.046 66.8265 321.046 66.1131C321.046 65.3997 320.468 64.8214 319.755 64.8214C319.043 64.8214 318.465 65.3997 318.465 66.1131C318.465 66.8265 319.043 67.4048 319.755 67.4048Z" fill="white" stroke="#263238" stroke-linecap="round" stroke-linejoin="round"/>
<path d="M324.533 67.4048C325.245 67.4048 325.823 66.8265 325.823 66.1131C325.823 65.3997 325.245 64.8214 324.533 64.8214C323.82 64.8214 323.242 65.3997 323.242 66.1131C323.242 66.8265 323.82 67.4048 324.533 67.4048Z" fill="white" stroke="#263238" stroke-linecap="round" stroke-linejoin="round"/>
<path d="M292.773 178.511V202.407" stroke="#263238" stroke-linecap="round" stroke-linejoin="round"/>
</svg>
