<svg width="1130" height="1080" viewBox="0 0 1130 1080" fill="none" xmlns="http://www.w3.org/2000/svg">
<path d="M-4.25147 816.029L-69.4656 750.815L-73.0296 804.058L-8.16538 868.923L-4.25147 816.029Z" fill="#E0F1EE"/>
<path d="M63.9092 953.8L128.773 1018.66L75.422 1022.12L10.5578 957.256L63.9092 953.8Z" fill="#E0F1EE"/>
<path d="M138.862 959.598L73.6477 894.384L70.0837 947.627L134.948 1012.49L138.862 959.598Z" fill="#E0F1EE"/>
<path d="M-8.43452 881.452L56.4297 946.316L3.07825 949.772L-61.786 884.908L-8.43452 881.452Z" fill="#E0F1EE"/>
<path d="M66.5142 887.25L1.30003 822.036L-2.26397 875.279L62.6002 940.143L66.5142 887.25Z" fill="#E0F1EE"/>
<path d="M-38.8017 988.657L26.0625 1053.52L-27.2889 1056.98L-92.1531 992.113L-38.8017 988.657Z" fill="#E0F1EE"/>
<path d="M36.1509 994.456L-29.0633 929.242L-32.6273 982.485L32.237 1047.35L36.1509 994.456Z" fill="#E0F1EE"/>
<path d="M-16.7905 251.343L-82.0047 186.129L-85.5687 239.372L-20.7044 304.236L-16.7905 251.343Z" fill="#E0F1EE"/>
<path d="M51.3702 389.116L116.234 453.98L62.8829 457.436L-1.98127 392.572L51.3702 389.116Z" fill="#E0F1EE"/>
<path d="M126.323 394.914L61.1086 329.7L57.5446 382.943L122.409 447.807L126.323 394.914Z" fill="#E0F1EE"/>
<path d="M-20.9775 316.768L43.8867 381.632L-9.46471 385.088L-74.3289 320.224L-20.9775 316.768Z" fill="#E0F1EE"/>
<path d="M53.9751 322.566L-11.239 257.352L-14.803 310.595L50.0612 375.459L53.9751 322.566Z" fill="#E0F1EE"/>
<path d="M-51.3408 423.971L13.5234 488.835L-39.828 492.291L-104.692 427.427L-51.3408 423.971Z" fill="#E0F1EE"/>
<path d="M23.6118 429.77L-41.6023 364.556L-45.1663 417.799L19.6979 482.664L23.6118 429.77Z" fill="#E0F1EE"/>
<path d="M196.874 534.15L261.738 599.014L208.387 602.47L143.523 537.606L196.874 534.15Z" fill="#E0F1EE"/>
<path d="M271.827 539.948L206.613 474.734L203.049 527.977L267.913 592.842L271.827 539.948Z" fill="#E0F1EE"/>
<path d="M124.526 461.802L189.391 526.666L136.039 530.122L71.175 465.257L124.526 461.802Z" fill="#E0F1EE"/>
<path d="M199.479 467.6L134.265 402.386L130.701 455.629L195.565 520.493L199.479 467.6Z" fill="#E0F1EE"/>
<path d="M51.8428 389.572L116.707 454.436L63.3556 457.892L-1.50861 393.028L51.8428 389.572Z" fill="#E0F1EE"/>
<path d="M126.795 395.37L61.5813 330.156L58.0173 383.399L122.881 448.263L126.795 395.37Z" fill="#E0F1EE"/>
<path d="M339.991 677.719L404.855 742.584L351.504 746.04L286.64 681.175L339.991 677.719Z" fill="#E0F1EE"/>
<path d="M414.94 683.518L349.726 618.303L346.162 671.547L411.026 736.411L414.94 683.518Z" fill="#E0F1EE"/>
<path d="M267.64 605.371L332.504 670.236L279.152 673.691L214.288 608.827L267.64 605.371Z" fill="#E0F1EE"/>
<path d="M342.592 611.17L277.378 545.955L273.814 599.199L338.678 664.063L342.592 611.17Z" fill="#E0F1EE"/>
<path d="M93.46 568.776L158.324 633.64L104.973 637.096L40.1086 572.232L93.46 568.776Z" fill="#E0F1EE"/>
<path d="M168.413 574.575L103.198 509.361L99.6345 562.604L164.499 627.468L168.413 574.575Z" fill="#E0F1EE"/>
<path d="M21.1124 496.428L85.9766 561.292L32.6251 564.748L-32.2391 499.884L21.1124 496.428Z" fill="#E0F1EE"/>
<path d="M96.0649 502.227L30.8508 437.013L27.2868 490.256L92.151 555.12L96.0649 502.227Z" fill="#E0F1EE"/>
<path d="M237.276 712.576L302.141 777.44L248.789 780.896L183.925 716.032L237.276 712.576Z" fill="#E0F1EE"/>
<path d="M312.229 718.376L247.015 653.162L243.451 706.405L308.315 771.269L312.229 718.376Z" fill="#E0F1EE"/>
<path d="M164.929 640.228L229.793 705.092L176.442 708.548L111.577 643.684L164.929 640.228Z" fill="#E0F1EE"/>
<path d="M239.881 646.027L174.667 580.813L171.103 634.057L235.967 698.921L239.881 646.027Z" fill="#E0F1EE"/>
<path d="M-11.7202 532.954L-76.9343 467.74L-80.4983 520.983L-15.6341 585.847L-11.7202 532.954Z" fill="#E0F1EE"/>
<path d="M58.835 672.191L123.699 737.055L70.3478 740.511L5.48358 675.647L58.835 672.191Z" fill="#E0F1EE"/>
<path d="M133.788 677.989L68.5735 612.775L65.0095 666.018L129.874 730.882L133.788 677.989Z" fill="#E0F1EE"/>
<path d="M-13.5087 599.842L51.3555 664.707L-1.99596 668.163L-66.8602 603.298L-13.5087 599.842Z" fill="#E0F1EE"/>
<path d="M61.4399 605.641L-3.77419 540.427L-7.33819 593.67L57.526 658.534L61.4399 605.641Z" fill="#E0F1EE"/>
<path d="M-11.2437 533.41L-76.4578 468.196L-80.0218 521.439L-15.1576 586.303L-11.2437 533.41Z" fill="#E0F1EE"/>
<path d="M201.952 815.759L266.816 880.623L213.465 884.079L148.601 819.214L201.952 815.759Z" fill="#E0F1EE"/>
<path d="M276.901 821.557L211.687 756.343L208.123 809.586L272.987 874.45L276.901 821.557Z" fill="#E0F1EE"/>
<path d="M129.601 743.41L194.465 808.275L141.113 811.731L76.2492 746.866L129.601 743.41Z" fill="#E0F1EE"/>
<path d="M204.553 749.209L139.339 683.995L135.775 737.238L200.639 802.102L204.553 749.209Z" fill="#E0F1EE"/>
<path d="M-44.5791 706.816L20.2852 771.68L-33.0663 775.136L-97.9305 710.272L-44.5791 706.816Z" fill="#E0F1EE"/>
<path d="M30.3735 712.615L-34.8406 647.401L-38.4046 700.644L26.4596 765.508L30.3735 712.615Z" fill="#E0F1EE"/>
<path d="M99.2374 850.616L164.102 915.48L110.75 918.936L45.8859 854.072L99.2374 850.616Z" fill="#E0F1EE"/>
<path d="M174.19 856.415L108.976 791.201L105.412 844.444L170.276 909.308L174.19 856.415Z" fill="#E0F1EE"/>
<path d="M26.8897 778.267L91.7539 843.131L38.4025 846.587L-26.4617 781.723L26.8897 778.267Z" fill="#E0F1EE"/>
<path d="M101.842 784.067L36.6282 718.852L33.0642 772.096L97.9284 836.96L101.842 784.067Z" fill="#E0F1EE"/>
<path d="M46.2959 107.506L111.16 172.37L57.8087 175.826L-7.05549 110.961L46.2959 107.506Z" fill="#E0F1EE"/>
<path d="M121.249 113.304L56.0344 48.0896L52.4704 101.333L117.335 166.197L121.249 113.304Z" fill="#E0F1EE"/>
<path d="M-26.0517 35.1579L38.8125 100.022L-14.5389 103.478L-79.4031 38.6138L-26.0517 35.1579Z" fill="#E0F1EE"/>
<path d="M48.9009 40.9561L-16.3133 -24.258L-19.8773 28.9853L44.987 93.8495L48.9009 40.9561Z" fill="#E0F1EE"/>
<path d="M-23.7827 -31.2743L-88.9968 -96.4884L-92.5608 -43.2451L-27.6966 21.6191L-23.7827 -31.2743Z" fill="#E0F1EE"/>
<path d="M189.409 251.076L254.273 315.94L200.922 319.396L136.058 254.532L189.409 251.076Z" fill="#E0F1EE"/>
<path d="M264.362 256.874L199.148 191.66L195.584 244.904L260.448 309.768L264.362 256.874Z" fill="#E0F1EE"/>
<path d="M117.062 178.728L181.926 243.592L128.574 247.048L63.7101 182.184L117.062 178.728Z" fill="#E0F1EE"/>
<path d="M192.014 184.526L126.8 119.312L123.236 172.555L188.1 237.42L192.014 184.526Z" fill="#E0F1EE"/>
<path d="M-57.1181 142.131L7.74609 206.996L-45.6053 210.452L-110.47 145.587L-57.1181 142.131Z" fill="#E0F1EE"/>
<path d="M17.8345 147.931L-47.3797 82.7167L-50.9437 135.96L13.9206 200.824L17.8345 147.931Z" fill="#E0F1EE"/>
<path d="M86.6983 285.931L151.562 350.796L98.2111 354.252L33.3469 289.387L86.6983 285.931Z" fill="#E0F1EE"/>
<path d="M161.651 291.731L96.4367 226.517L92.8727 279.76L157.737 344.624L161.651 291.731Z" fill="#E0F1EE"/>
<path d="M14.3506 213.583L79.2148 278.447L25.8634 281.903L-39.0008 217.039L14.3506 213.583Z" fill="#E0F1EE"/>
<path d="M89.3032 219.382L24.0891 154.168L20.5251 207.412L85.3893 272.276L89.3032 219.382Z" fill="#E0F1EE"/>
<path d="M334.917 396.11L399.781 460.974L346.43 464.43L281.566 399.566L334.917 396.11Z" fill="#E0F1EE"/>
<path d="M409.87 401.908L344.655 336.694L341.091 389.938L405.956 454.802L409.87 401.908Z" fill="#E0F1EE"/>
<path d="M262.569 323.762L327.434 388.626L274.082 392.082L209.218 327.218L262.569 323.762Z" fill="#E0F1EE"/>
<path d="M337.522 329.56L272.308 264.346L268.744 317.59L333.608 382.454L337.522 329.56Z" fill="#E0F1EE"/>
<path d="M189.886 251.531L254.75 316.395L201.399 319.851L136.534 254.987L189.886 251.531Z" fill="#E0F1EE"/>
<path d="M264.838 257.329L199.624 192.115L196.06 245.359L260.924 310.223L264.838 257.329Z" fill="#E0F1EE"/>
<path d="M478.03 539.68L542.895 604.544L489.543 608L424.679 543.136L478.03 539.68Z" fill="#E0F1EE"/>
<path d="M552.983 545.478L487.769 480.264L484.205 533.507L549.069 598.371L552.983 545.478Z" fill="#E0F1EE"/>
<path d="M405.683 467.332L470.547 532.196L417.195 535.652L352.331 470.788L405.683 467.332Z" fill="#E0F1EE"/>
<path d="M480.635 473.13L415.421 407.916L411.857 461.159L476.721 526.023L480.635 473.13Z" fill="#E0F1EE"/>
<path d="M231.503 430.735L296.367 495.599L243.016 499.055L178.152 434.191L231.503 430.735Z" fill="#E0F1EE"/>
<path d="M306.456 436.534L241.241 371.32L237.677 424.564L302.542 489.428L306.456 436.534Z" fill="#E0F1EE"/>
<path d="M159.155 358.387L224.02 423.251L170.668 426.707L105.804 361.843L159.155 358.387Z" fill="#E0F1EE"/>
<path d="M234.108 364.187L168.894 298.973L165.33 352.216L230.194 417.08L234.108 364.187Z" fill="#E0F1EE"/>
<path d="M375.319 574.535L440.184 639.399L386.832 642.855L321.968 577.991L375.319 574.535Z" fill="#E0F1EE"/>
<path d="M450.272 580.335L385.058 515.12L381.494 568.364L446.358 633.228L450.272 580.335Z" fill="#E0F1EE"/>
<path d="M302.972 502.187L367.836 567.052L314.485 570.507L249.62 505.643L302.972 502.187Z" fill="#E0F1EE"/>
<path d="M377.924 507.987L312.71 442.773L309.146 496.016L374.01 560.88L377.924 507.987Z" fill="#E0F1EE"/>
<path d="M184.343 -30.5435L249.207 34.3207L195.856 37.7766L130.991 -27.0876L184.343 -30.5435Z" fill="#E0F1EE"/>
<path d="M259.295 -24.7454L194.081 -89.9595L190.517 -36.7161L255.381 28.1481L259.295 -24.7454Z" fill="#E0F1EE"/>
<path d="M327.456 113.026L392.32 177.89L338.969 181.346L274.105 116.482L327.456 113.026Z" fill="#E0F1EE"/>
<path d="M402.409 118.824L337.195 53.6101L333.631 106.853L398.495 171.718L402.409 118.824Z" fill="#E0F1EE"/>
<path d="M255.108 40.6774L319.973 105.542L266.621 108.998L201.757 44.1333L255.108 40.6774Z" fill="#E0F1EE"/>
<path d="M330.061 46.4756L264.847 -18.7385L261.283 34.5048L326.147 99.369L330.061 46.4756Z" fill="#E0F1EE"/>
<path d="M80.9288 4.0832L145.793 68.9474L92.4415 72.4033L27.5773 7.53911L80.9288 4.0832Z" fill="#E0F1EE"/>
<path d="M155.881 9.88221L90.6672 -55.3319L87.1032 -2.08858L151.967 62.7756L155.881 9.88221Z" fill="#E0F1EE"/>
<path d="M8.58111 -68.2654L73.4453 -3.40125L20.0939 0.054664L-44.7703 -64.8095L8.58111 -68.2654Z" fill="#E0F1EE"/>
<path d="M224.745 147.883L289.609 212.747L236.258 216.203L171.394 151.339L224.745 147.883Z" fill="#E0F1EE"/>
<path d="M299.698 153.682L234.484 88.4683L230.92 141.712L295.784 206.576L299.698 153.682Z" fill="#E0F1EE"/>
<path d="M152.398 75.5347L217.262 140.399L163.91 143.855L99.0461 78.9906L152.398 75.5347Z" fill="#E0F1EE"/>
<path d="M227.35 81.3337L162.136 16.1196L158.572 69.363L223.436 134.227L227.35 81.3337Z" fill="#E0F1EE"/>
<path d="M472.964 258.062L537.828 322.926L484.477 326.382L419.612 261.518L472.964 258.062Z" fill="#E0F1EE"/>
<path d="M547.916 263.86L482.702 198.646L479.138 251.889L544.003 316.753L547.916 263.86Z" fill="#E0F1EE"/>
<path d="M400.616 185.713L465.48 250.577L412.129 254.033L347.265 189.169L400.616 185.713Z" fill="#E0F1EE"/>
<path d="M475.569 191.511L410.355 126.297L406.791 179.541L471.655 244.405L475.569 191.511Z" fill="#E0F1EE"/>
<path d="M327.933 113.482L392.797 178.347L339.445 181.803L274.581 116.938L327.933 113.482Z" fill="#E0F1EE"/>
<path d="M402.885 119.281L337.671 54.0665L334.107 107.31L398.971 172.174L402.885 119.281Z" fill="#E0F1EE"/>
<path d="M616.077 401.631L680.941 466.495L627.59 469.951L562.726 405.087L616.077 401.631Z" fill="#E0F1EE"/>
<path d="M691.03 407.429L625.816 342.215L622.252 395.458L687.116 460.323L691.03 407.429Z" fill="#E0F1EE"/>
<path d="M543.73 329.283L608.594 394.147L555.242 397.603L490.378 332.739L543.73 329.283Z" fill="#E0F1EE"/>
<path d="M618.682 335.081L553.468 269.867L549.904 323.11L614.768 387.974L618.682 335.081Z" fill="#E0F1EE"/>
<path d="M369.554 292.687L434.418 357.551L381.067 361.007L316.202 296.143L369.554 292.687Z" fill="#E0F1EE"/>
<path d="M444.506 298.486L379.292 233.272L375.728 286.516L440.592 351.38L444.506 298.486Z" fill="#E0F1EE"/>
<path d="M297.206 220.339L362.07 285.203L308.719 288.659L243.855 223.795L297.206 220.339Z" fill="#E0F1EE"/>
<path d="M372.159 226.138L306.945 160.924L303.381 214.168L368.245 279.032L372.159 226.138Z" fill="#E0F1EE"/>
<path d="M513.366 436.488L578.23 501.352L524.879 504.808L460.015 439.944L513.366 436.488Z" fill="#E0F1EE"/>
<path d="M588.319 442.287L523.105 377.073L519.541 430.316L584.405 495.181L588.319 442.287Z" fill="#E0F1EE"/>
<path d="M441.019 364.14L505.883 429.004L452.531 432.46L387.667 367.596L441.019 364.14Z" fill="#E0F1EE"/>
<path d="M515.971 369.939L450.757 304.725L447.193 357.968L512.057 422.832L515.971 369.939Z" fill="#E0F1EE"/>
<path d="M749.042 -18.0181L813.906 46.8461L760.555 50.302L695.691 -14.5622L749.042 -18.0181Z" fill="#E0F1EE"/>
<path d="M823.995 -12.22L758.78 -77.4341L755.216 -24.1907L820.081 40.6734L823.995 -12.22Z" fill="#E0F1EE"/>
<path d="M676.694 -90.3663L741.559 -25.5021L688.207 -22.0462L623.343 -86.9104L676.694 -90.3663Z" fill="#E0F1EE"/>
<path d="M892.155 125.552L957.02 190.416L903.668 193.872L838.804 129.007L892.155 125.552Z" fill="#E0F1EE"/>
<path d="M967.108 131.35L901.894 66.1356L898.33 119.379L963.194 184.243L967.108 131.35Z" fill="#E0F1EE"/>
<path d="M819.808 53.2032L884.672 118.067L831.32 121.523L766.456 56.6591L819.808 53.2032Z" fill="#E0F1EE"/>
<path d="M894.76 59.0013L829.546 -6.21276L825.982 47.0306L890.846 111.895L894.76 59.0013Z" fill="#E0F1EE"/>
<path d="M645.628 16.6074L710.492 81.4716L657.141 84.9275L592.277 20.0633L645.628 16.6074Z" fill="#E0F1EE"/>
<path d="M720.581 22.4067L655.366 -42.8074L651.802 10.436L716.667 75.3002L720.581 22.4067Z" fill="#E0F1EE"/>
<path d="M573.28 -55.741L638.145 9.12317L584.793 12.5791L519.929 -52.2851L573.28 -55.741Z" fill="#E0F1EE"/>
<path d="M648.233 -49.9416L583.019 -115.156L579.455 -61.9124L644.319 2.95177L648.233 -49.9416Z" fill="#E0F1EE"/>
<path d="M789.444 160.407L854.309 225.271L800.957 228.727L736.093 163.863L789.444 160.407Z" fill="#E0F1EE"/>
<path d="M864.397 166.206L799.183 100.992L795.619 154.235L860.483 219.1L864.397 166.206Z" fill="#E0F1EE"/>
<path d="M717.097 88.0584L781.961 152.923L728.61 156.379L663.745 91.5143L717.097 88.0584Z" fill="#E0F1EE"/>
<path d="M792.049 93.8579L726.835 28.6438L723.271 81.8871L788.135 146.751L792.049 93.8579Z" fill="#E0F1EE"/>
<path d="M465.495 -25.0136L530.359 39.8506L477.008 43.3065L412.144 -21.5577L465.495 -25.0136Z" fill="#E0F1EE"/>
<path d="M540.448 -19.2153L475.234 -84.4294L471.67 -31.1861L536.534 33.6781L540.448 -19.2153Z" fill="#E0F1EE"/>
<path d="M362.784 9.84272L427.648 74.7069L374.297 78.1628L309.433 13.2986L362.784 9.84272Z" fill="#E0F1EE"/>
<path d="M437.737 15.6421L372.523 -49.572L368.959 3.67131L433.823 68.5355L437.737 15.6421Z" fill="#E0F1EE"/>
<path d="M290.437 -62.5055L355.301 2.35864L301.949 5.81455L237.085 -59.0496L290.437 -62.5055Z" fill="#E0F1EE"/>
<path d="M611.003 120.022L675.867 184.886L622.516 188.342L557.652 123.478L611.003 120.022Z" fill="#E0F1EE"/>
<path d="M685.956 125.82L620.741 60.6063L617.177 113.85L682.042 178.714L685.956 125.82Z" fill="#E0F1EE"/>
<path d="M538.655 47.6743L603.52 112.538L550.168 115.994L485.304 51.1302L538.655 47.6743Z" fill="#E0F1EE"/>
<path d="M613.608 53.4724L548.394 -11.7417L544.83 41.5016L609.694 106.366L613.608 53.4724Z" fill="#E0F1EE"/>
<path d="M465.972 -24.5556L530.836 40.3086L477.485 43.7645L412.62 -21.0997L465.972 -24.5556Z" fill="#E0F1EE"/>
<path d="M540.924 -18.7576L475.71 -83.9717L472.146 -30.7283L537.01 34.1358L540.924 -18.7576Z" fill="#E0F1EE"/>
<path d="M754.116 263.591L818.98 328.456L765.629 331.911L700.765 267.047L754.116 263.591Z" fill="#E0F1EE"/>
<path d="M829.069 269.39L763.855 204.175L760.291 257.419L825.155 322.283L829.069 269.39Z" fill="#E0F1EE"/>
<path d="M681.769 191.243L746.633 256.107L693.281 259.563L628.417 194.699L681.769 191.243Z" fill="#E0F1EE"/>
<path d="M756.721 197.041L691.507 131.827L687.943 185.071L752.807 249.935L756.721 197.041Z" fill="#E0F1EE"/>
<path d="M507.589 154.648L572.453 219.512L519.102 222.968L454.237 158.104L507.589 154.648Z" fill="#E0F1EE"/>
<path d="M582.541 160.447L517.327 95.2326L513.763 148.476L578.628 213.34L582.541 160.447Z" fill="#E0F1EE"/>
<path d="M435.241 82.2994L500.105 147.164L446.754 150.619L381.89 85.7553L435.241 82.2994Z" fill="#E0F1EE"/>
<path d="M510.194 88.0988L444.98 22.8847L441.416 76.128L506.28 140.992L510.194 88.0988Z" fill="#E0F1EE"/>
<path d="M651.405 298.448L716.27 363.312L662.918 366.768L598.054 301.904L651.405 298.448Z" fill="#E0F1EE"/>
<path d="M726.358 304.248L661.144 239.033L657.58 292.277L722.444 357.141L726.358 304.248Z" fill="#E0F1EE"/>
<path d="M579.058 226.1L643.922 290.964L590.57 294.42L525.706 229.556L579.058 226.1Z" fill="#E0F1EE"/>
<path d="M654.01 231.899L588.796 166.685L585.232 219.929L650.096 284.793L654.01 231.899Z" fill="#E0F1EE"/>
<path d="M1030.2 -12.4876L1095.06 52.3766L1041.71 55.8325L976.847 -9.03169L1030.2 -12.4876Z" fill="#E0F1EE"/>
<path d="M1105.15 -6.68945L1039.94 -71.9036L1036.37 -18.6602L1101.24 46.204L1105.15 -6.68945Z" fill="#E0F1EE"/>
<path d="M957.851 -84.836L1022.71 -19.9718L969.363 -16.5159L904.499 -81.3801L957.851 -84.836Z" fill="#E0F1EE"/>
<path d="M927.487 22.3674L992.352 87.2316L939 90.6875L874.136 25.8233L927.487 22.3674Z" fill="#E0F1EE"/>
<path d="M1002.44 28.1668L937.226 -37.0474L933.662 16.196L998.526 81.0602L1002.44 28.1668Z" fill="#E0F1EE"/>
<path d="M855.14 -49.9809L920.004 14.8833L866.652 18.3392L801.788 -46.525L855.14 -49.9809Z" fill="#E0F1EE"/>
<path d="M930.092 -44.1815L864.878 -109.396L861.314 -56.1523L926.178 8.7119L930.092 -44.1815Z" fill="#E0F1EE"/>
</svg>
