<svg width="553" height="667" viewBox="0 0 553 667" fill="none" xmlns="http://www.w3.org/2000/svg">
<path d="M104.571 700.838L36.3633 632.63L92.4651 628.996L160.673 697.204L104.571 700.838Z" fill="#E0F1EE"/>
<path d="M25.7561 694.741L94.3321 763.317L98.0799 707.328L29.8718 639.12L25.7561 694.741Z" fill="#E0F1EE"/>
<path d="M574.681 230.723L506.473 162.515L562.574 158.881L630.782 227.089L574.681 230.723Z" fill="#E0F1EE"/>
<path d="M495.866 224.626L564.442 293.202L568.189 237.214L499.981 169.006L495.866 224.626Z" fill="#E0F1EE"/>
<path d="M571.944 300.705L640.52 369.281L644.267 313.293L576.059 245.085L571.944 300.705Z" fill="#E0F1EE"/>
<path d="M345.453 729.609L218.465 602.62L322.914 595.855L449.903 722.843L345.453 729.609Z" fill="#E0F1EE"/>
<path d="M198.718 718.256L326.392 845.93L333.37 741.692L206.381 614.704L198.718 718.256Z" fill="#E0F1EE"/>
<path d="M401.199 521.763L274.211 394.774L378.66 388.009L505.649 514.997L401.199 521.763Z" fill="#E0F1EE"/>
<path d="M254.465 510.411L382.138 638.084L389.116 533.846L262.127 406.858L254.465 510.411Z" fill="#E0F1EE"/>
<path d="M542.84 663.404L415.852 536.416L520.301 529.65L647.289 656.638L542.84 663.404Z" fill="#E0F1EE"/>
<path d="M396.105 652.052L523.779 779.725L530.756 675.488L403.768 548.499L396.105 652.052Z" fill="#E0F1EE"/>
<path d="M609.043 466.015L482.055 339.026L586.504 332.26L713.493 459.249L609.043 466.015Z" fill="#E0F1EE"/>
<path d="M462.308 454.663L589.982 582.336L596.959 478.098L469.971 351.11L462.308 454.663Z" fill="#E0F1EE"/>
<path d="M592.781 172.094L720.455 299.768L727.432 195.53L600.444 68.5416L592.781 172.094Z" fill="#E0F1EE"/>
</svg>
